{"title":"The Amazing Spider-Man 2 2014 HC Webrip x264 AC3 TiTAN","uid":10574660,"size":1555657848,"categoryP":"video","categoryS":"hd___movies","magnet":"?xt=urn:btih:757debed11291ae314827696df7006afba5667dd&amp;dn=The+Amazing+Spider-Man+2+2014+HC+Webrip+x264+AC3+TiTAN&amp;tr=udp%3A%2F%2Ftracker.openbittorrent.com%3A80&amp;tr=udp%3A%2F%2Fopen.demonii.com%3A1337&amp;tr=udp%3A%2F%2Ftracker.coppersurfer.tk%3A6969&amp;tr=udp%3A%2F%2Fexodus.desync.com%3A6969","seeders":3,"leechers":0,"uploader":"lokioddin","files":3,"time":1405629062,"description":"SilverTorrent - Clean And Verified Torrents Download\n\n\n\nThe Amazing Spider-Man 2 2014 HC Webrip x264 AC3 TiTAN\n\n\n &lt;a href=&quot;\nhttp://www.imdb.com/title/tt1872181/&quot; rel=&quot;nofollow&quot; target=&quot;_NEW&quot;&gt;\nhttp://www.imdb.com/title/tt1872181/&lt;/a&gt;\n\nSource: NET ISM\n\nGeneral\n\nFormat                                   : Matroska\nFormat version                           : Version 2\nFile size                                : 1.45 GiB\nDuration                                 : 2h 21mn\nOverall bit rate mode                    : Variable\nOverall bit rate                         : 1 464 Kbps\nEncoded date                             : UTC 2014-07-17 17:48:02\n\n\nVideo\nID                                       : 1\nFormat                                   : AVC\nFormat/Info                              : Advanced Video Codec\nFormat profile                           : &lt;a class=&quot;__cf_email__&quot; href=&quot;/cdn-cgi/l/email-protection&quot; data-cfemail=&quot;1b53727c735b572f352a&quot;&gt;[email&amp;#160;protected]&lt;/a&gt;&lt;script cf-hash='f9e31' type=&quot;text/javascript&quot;&gt;\n/* &lt;![CDATA[ */!function(){try{var t=&quot;currentScript&quot;in document?document.currentScript:function(){for(var t=document.getElementsByTagName(&quot;script&quot;),e=t.length;e--;)if(t[e].getAttribute(&quot;cf-hash&quot;))return t[e]}();if(t&amp;&amp;t.previousSibling){var e,r,n,i,c=t.previousSibling,a=c.getAttribute(&quot;data-cfemail&quot;);if(a){for(e=&quot;&quot;,r=parseInt(a.substr(0,2),16),n=2;a.length-n;n+=2)i=parseInt(a.substr(n,2),16)^r,e+=String.fromCharCode(i);e=document.createTextNode(e),c.parentNode.replaceChild(e,c)}}}catch(u){}}();/* ]]&gt; */&lt;/script&gt;\nFormat settings, CABAC                   : Yes\nFormat settings, ReFrames                : 3 frames\nCodec ID                                 : V_MPEG4/ISO/AVC\nDuration                                 : 2h 21mn\nBit rate mode                            : Variable\nBit rate                                 : 1 179 Kbps\nMaximum bit rate                         : 40.0 Mbps\nWidth                                    : 720 pixels\nHeight                                   : 304 pixels\nDisplay aspect ratio                     : 2.35:1\nFrame rate mode                          : Constant\nFrame rate                               : 24.000 fps\nColor space                              : YUV\nChroma subsampling                       : 4:2:0\nBit depth                                : 8 bits\nScan type                                : Progressive\nBits/(Pixel*Frame)                       : 0.224\nStream size                              : 1.17 GiB (81%)\n\n\nAudio\nID                                       : 2\nFormat                                   : AC-3\nFormat/Info                              : Audio Coding 3\nMode extension                           : CM (complete main)\nFormat settings, Endianness              : Big\nCodec ID                                 : A_AC3\nDuration                                 : 2h 21mn\nBit rate mode                            : Constant\nBit rate                                 : 256 Kbps\nChannel(s)                               : 2 channels\nChannel positions                        : Front: L R\nSampling rate                            : 44.1 KHz\nBit depth                                : 16 bits\nCompression mode                         : Lossy\nStream size                              : 259 MiB (17%)\nDefault                                  : Yes\nForced                                   : No\n\n &lt;a href=&quot;\nhttp://i.imgur.com/ShI1oaV.png&quot; rel=&quot;nofollow&quot; target=&quot;_NEW&quot;&gt;\nhttp://i.imgur.com/ShI1oaV.png&lt;/a&gt;\n &lt;a href=&quot;\nhttp://i.imgur.com/ieChjhE.png&quot; rel=&quot;nofollow&quot; target=&quot;_NEW&quot;&gt;\nhttp://i.imgur.com/ieChjhE.png&lt;/a&gt;\n &lt;a href=&quot;\nhttp://i.imgur.com/EIO5DQm.png&quot; rel=&quot;nofollow&quot; target=&quot;_NEW&quot;&gt;\nhttp://i.imgur.com/EIO5DQm.png&lt;/a&gt;\n &lt;a href=&quot;\nhttp://i.imgur.com/Qp8Jdme.png&quot; rel=&quot;nofollow&quot; target=&quot;_NEW&quot;&gt;\nhttp://i.imgur.com/Qp8Jdme.png&lt;/a&gt;\n &lt;a href=&quot;\nhttp://i.imgur.com/gT6TzNV.png&quot; rel=&quot;nofollow&quot; target=&quot;_NEW&quot;&gt;\nhttp://i.imgur.com/gT6TzNV.png&lt;/a&gt;\n\nSilverTorrent - Clean And Verified Torrents Download\n\n","torrent":{"xt":"urn:btih:757debed11291ae314827696df7006afba5667dd","amp;dn":"The+Amazing+Spider-Man+2+2014+HC+Webrip+x264+AC3+TiTAN","amp;tr":["udp%3A%2F%2Ftracker.openbittorrent.com%3A80","udp%3A%2F%2Fopen.demonii.com%3A1337","udp%3A%2F%2Ftracker.coppersurfer.tk%3A6969","udp%3A%2F%2Fexodus.desync.com%3A6969"],"infoHash":"757debed11291ae314827696df7006afba5667dd","infoHashBuffer":{"type":"Buffer","data":[117,125,235,237,17,41,26,227,20,130,118,150,223,112,6,175,186,86,103,221]},"announce":[],"urlList":[]}}